<mxfile host="app.diagrams.net" modified="2023-01-03T06:30:55.445Z" agent="5.0 (Macintosh; Intel Mac OS X 10_15_7) AppleWebKit/537.36 (KHTML, like Gecko) Chrome/108.0.0.0 Safari/537.36" version="20.7.4" etag="lHagpWMW7BWq-_AWCrkd" type="github">
  <diagram id="Ltg7QcrjP80mgIcot8rD" name="第 1 页">
    <mxGraphModel dx="954" dy="616" grid="1" gridSize="10" guides="1" tooltips="1" connect="1" arrows="1" fold="1" page="1" pageScale="1" pageWidth="827" pageHeight="1169" math="0" shadow="0">
      <root>
        <mxCell id="0" />
        <mxCell id="1" parent="0" />
        <mxCell id="WKshn-10NaRzlIwst9Vs-3" style="edgeStyle=orthogonalEdgeStyle;rounded=0;orthogonalLoop=1;jettySize=auto;html=1;exitX=0.5;exitY=1;exitDx=0;exitDy=0;strokeWidth=2;" edge="1" parent="1" source="WKshn-10NaRzlIwst9Vs-1" target="WKshn-10NaRzlIwst9Vs-2">
          <mxGeometry relative="1" as="geometry" />
        </mxCell>
        <mxCell id="WKshn-10NaRzlIwst9Vs-1" value="任务提交" style="rounded=0;whiteSpace=wrap;html=1;fillColor=#dae8fc;strokeColor=#6c8ebf;strokeWidth=3;" vertex="1" parent="1">
          <mxGeometry x="130" y="70" width="120" height="60" as="geometry" />
        </mxCell>
        <mxCell id="WKshn-10NaRzlIwst9Vs-8" style="edgeStyle=orthogonalEdgeStyle;rounded=0;orthogonalLoop=1;jettySize=auto;html=1;exitX=1;exitY=0.5;exitDx=0;exitDy=0;entryX=0;entryY=0.5;entryDx=0;entryDy=0;strokeWidth=2;" edge="1" parent="1" source="WKshn-10NaRzlIwst9Vs-2" target="WKshn-10NaRzlIwst9Vs-4">
          <mxGeometry relative="1" as="geometry" />
        </mxCell>
        <mxCell id="WKshn-10NaRzlIwst9Vs-16" style="edgeStyle=orthogonalEdgeStyle;curved=1;rounded=0;orthogonalLoop=1;jettySize=auto;html=1;exitX=0.5;exitY=1;exitDx=0;exitDy=0;entryX=0.5;entryY=0;entryDx=0;entryDy=0;strokeWidth=2;elbow=vertical;" edge="1" parent="1" source="WKshn-10NaRzlIwst9Vs-2" target="WKshn-10NaRzlIwst9Vs-15">
          <mxGeometry relative="1" as="geometry" />
        </mxCell>
        <mxCell id="WKshn-10NaRzlIwst9Vs-2" value="Driver" style="rounded=0;whiteSpace=wrap;html=1;strokeWidth=3;fillColor=#dae8fc;strokeColor=#6c8ebf;" vertex="1" parent="1">
          <mxGeometry x="130" y="170" width="120" height="60" as="geometry" />
        </mxCell>
        <mxCell id="WKshn-10NaRzlIwst9Vs-22" value="" style="edgeStyle=orthogonalEdgeStyle;curved=1;rounded=0;orthogonalLoop=1;jettySize=auto;html=1;strokeWidth=2;elbow=vertical;" edge="1" parent="1" source="WKshn-10NaRzlIwst9Vs-4" target="WKshn-10NaRzlIwst9Vs-21">
          <mxGeometry relative="1" as="geometry" />
        </mxCell>
        <mxCell id="WKshn-10NaRzlIwst9Vs-4" value="集群管理器" style="rounded=0;whiteSpace=wrap;html=1;strokeWidth=3;fillColor=#dae8fc;strokeColor=#6c8ebf;" vertex="1" parent="1">
          <mxGeometry x="414" y="170" width="116" height="60" as="geometry" />
        </mxCell>
        <mxCell id="WKshn-10NaRzlIwst9Vs-10" value="申请资源" style="text;html=1;strokeColor=none;fillColor=none;align=center;verticalAlign=middle;whiteSpace=wrap;rounded=0;strokeWidth=3;" vertex="1" parent="1">
          <mxGeometry x="310" y="170" width="60" height="30" as="geometry" />
        </mxCell>
        <mxCell id="WKshn-10NaRzlIwst9Vs-13" value="" style="endArrow=classic;html=1;rounded=0;strokeWidth=2;entryX=1;entryY=0.5;entryDx=0;entryDy=0;exitX=0.5;exitY=1;exitDx=0;exitDy=0;edgeStyle=orthogonalEdgeStyle;elbow=vertical;curved=1;" edge="1" parent="1" source="WKshn-10NaRzlIwst9Vs-4" target="WKshn-10NaRzlIwst9Vs-2">
          <mxGeometry width="50" height="50" relative="1" as="geometry">
            <mxPoint x="390" y="350" as="sourcePoint" />
            <mxPoint x="440" y="300" as="targetPoint" />
            <Array as="points">
              <mxPoint x="510" y="240" />
              <mxPoint x="260" y="240" />
              <mxPoint x="260" y="200" />
            </Array>
          </mxGeometry>
        </mxCell>
        <mxCell id="WKshn-10NaRzlIwst9Vs-14" value="反向注册" style="text;html=1;strokeColor=none;fillColor=none;align=center;verticalAlign=middle;whiteSpace=wrap;rounded=0;strokeWidth=3;" vertex="1" parent="1">
          <mxGeometry x="354" y="240" width="60" height="30" as="geometry" />
        </mxCell>
        <mxCell id="WKshn-10NaRzlIwst9Vs-18" style="edgeStyle=orthogonalEdgeStyle;curved=1;rounded=0;orthogonalLoop=1;jettySize=auto;html=1;exitX=0.5;exitY=1;exitDx=0;exitDy=0;strokeWidth=2;elbow=vertical;" edge="1" parent="1" source="WKshn-10NaRzlIwst9Vs-15" target="WKshn-10NaRzlIwst9Vs-17">
          <mxGeometry relative="1" as="geometry" />
        </mxCell>
        <mxCell id="WKshn-10NaRzlIwst9Vs-15" value="main" style="rounded=0;whiteSpace=wrap;html=1;strokeWidth=3;fillColor=#dae8fc;strokeColor=#6c8ebf;" vertex="1" parent="1">
          <mxGeometry x="130" y="280" width="120" height="60" as="geometry" />
        </mxCell>
        <mxCell id="WKshn-10NaRzlIwst9Vs-20" style="edgeStyle=orthogonalEdgeStyle;curved=1;rounded=0;orthogonalLoop=1;jettySize=auto;html=1;exitX=0.5;exitY=1;exitDx=0;exitDy=0;strokeWidth=2;elbow=vertical;" edge="1" parent="1" source="WKshn-10NaRzlIwst9Vs-17" target="WKshn-10NaRzlIwst9Vs-19">
          <mxGeometry relative="1" as="geometry" />
        </mxCell>
        <mxCell id="WKshn-10NaRzlIwst9Vs-17" value="执行action操作" style="rounded=0;whiteSpace=wrap;html=1;strokeWidth=3;fillColor=#dae8fc;strokeColor=#6c8ebf;" vertex="1" parent="1">
          <mxGeometry x="130" y="390" width="120" height="60" as="geometry" />
        </mxCell>
        <mxCell id="WKshn-10NaRzlIwst9Vs-23" style="edgeStyle=orthogonalEdgeStyle;curved=1;rounded=0;orthogonalLoop=1;jettySize=auto;html=1;entryX=0.5;entryY=1;entryDx=0;entryDy=0;strokeWidth=2;elbow=vertical;exitX=1;exitY=0.5;exitDx=0;exitDy=0;" edge="1" parent="1" source="WKshn-10NaRzlIwst9Vs-29" target="WKshn-10NaRzlIwst9Vs-21">
          <mxGeometry relative="1" as="geometry" />
        </mxCell>
        <mxCell id="WKshn-10NaRzlIwst9Vs-30" value="" style="edgeStyle=orthogonalEdgeStyle;curved=1;rounded=0;orthogonalLoop=1;jettySize=auto;html=1;strokeWidth=2;elbow=vertical;" edge="1" parent="1" source="WKshn-10NaRzlIwst9Vs-19" target="WKshn-10NaRzlIwst9Vs-29">
          <mxGeometry relative="1" as="geometry" />
        </mxCell>
        <mxCell id="WKshn-10NaRzlIwst9Vs-19" value="划分stage" style="rounded=0;whiteSpace=wrap;html=1;strokeWidth=3;fillColor=#dae8fc;strokeColor=#6c8ebf;" vertex="1" parent="1">
          <mxGeometry x="130" y="500" width="120" height="60" as="geometry" />
        </mxCell>
        <mxCell id="WKshn-10NaRzlIwst9Vs-21" value="Executor" style="rounded=0;whiteSpace=wrap;html=1;strokeWidth=3;fillColor=#dae8fc;strokeColor=#6c8ebf;" vertex="1" parent="1">
          <mxGeometry x="630" y="170" width="120" height="60" as="geometry" />
        </mxCell>
        <mxCell id="WKshn-10NaRzlIwst9Vs-24" value="提交任务" style="text;html=1;strokeColor=none;fillColor=none;align=center;verticalAlign=middle;whiteSpace=wrap;rounded=0;strokeWidth=3;" vertex="1" parent="1">
          <mxGeometry x="540" y="500" width="60" height="30" as="geometry" />
        </mxCell>
        <mxCell id="WKshn-10NaRzlIwst9Vs-25" value="资源满足后" style="text;html=1;strokeColor=none;fillColor=none;align=center;verticalAlign=middle;whiteSpace=wrap;rounded=0;strokeWidth=3;" vertex="1" parent="1">
          <mxGeometry x="190" y="240" width="70" height="30" as="geometry" />
        </mxCell>
        <mxCell id="WKshn-10NaRzlIwst9Vs-27" value="懒执行" style="text;html=1;strokeColor=none;fillColor=none;align=center;verticalAlign=middle;whiteSpace=wrap;rounded=0;strokeWidth=3;" vertex="1" parent="1">
          <mxGeometry x="180" y="350" width="70" height="30" as="geometry" />
        </mxCell>
        <mxCell id="WKshn-10NaRzlIwst9Vs-29" value="创建TaskSet" style="rounded=0;whiteSpace=wrap;html=1;strokeWidth=3;fillColor=#dae8fc;strokeColor=#6c8ebf;" vertex="1" parent="1">
          <mxGeometry x="130" y="610" width="120" height="60" as="geometry" />
        </mxCell>
        <mxCell id="WKshn-10NaRzlIwst9Vs-31" value="触发job" style="text;html=1;strokeColor=none;fillColor=none;align=center;verticalAlign=middle;whiteSpace=wrap;rounded=0;strokeWidth=3;" vertex="1" parent="1">
          <mxGeometry x="190" y="460" width="60" height="30" as="geometry" />
        </mxCell>
      </root>
    </mxGraphModel>
  </diagram>
</mxfile>
